<svg id="visual" viewBox="0 0 1440 400" width="1440" height="400" xmlns="http://www.w3.org/2000/svg" xmlns:xlink="http://www.w3.org/1999/xlink" version="1.1"><path d="M0 293L16 285.3C32 277.7 64 262.3 96 262.2C128 262 160 277 192 291.2C224 305.3 256 318.7 288 325.2C320 331.7 352 331.3 384 315.5C416 299.7 448 268.3 480 259C512 249.7 544 262.3 576 282.2C608 302 640 329 672 331.3C704 333.7 736 311.3 768 303.8C800 296.3 832 303.7 864 312.8C896 322 928 333 960 320.5C992 308 1024 272 1056 256.2C1088 240.3 1120 244.7 1152 265.8C1184 287 1216 325 1248 328.8C1280 332.7 1312 302.3 1344 288.3C1376 274.3 1408 276.7 1424 277.8L1440 279L1440 401L1424 401C1408 401 1376 401 1344 401C1312 401 1280 401 1248 401C1216 401 1184 401 1152 401C1120 401 1088 401 1056 401C1024 401 992 401 960 401C928 401 896 401 864 401C832 401 800 401 768 401C736 401 704 401 672 401C640 401 608 401 576 401C544 401 512 401 480 401C448 401 416 401 384 401C352 401 320 401 288 401C256 401 224 401 192 401C160 401 128 401 96 401C64 401 32 401 16 401L0 401Z" fill="#259be9" stroke-linecap="round" stroke-linejoin="miter"></path></svg>